<svg width="149" height="52" viewBox="0 0 149 52" fill="none" xmlns="http://www.w3.org/2000/svg">
<path d="M68.2822 26C82.0825 26 99.2969 33.8705 107.131 37.7877C99.5365 34.6761 83.3762 28.1922 69.0369 28.1922C57.3892 28.1922 46.6593 29.8663 42.4426 31.1032C43.4488 32.3251 44.1892 34.2586 49.8818 37.1049C55.2684 39.7982 64.8661 42.8004 68.4806 43.6331C68.6702 43.674 68.8557 43.7142 69.0369 43.7535C68.872 43.7207 68.686 43.6804 68.4806 43.6331C58.6218 41.5024 37.7319 37.1975 28.5345 36.0627C23 35.3799 9.18771 35.1283 5.49805 35.3799C9.59501 34.9486 20.4052 33.3242 29.7204 31.4267C41.3644 29.0548 48.8755 26 68.2822 26Z" fill="#F3F4F6"/>
<path d="M64.3657 40.4112C55.9561 39.0096 46.2168 33.9663 44.5996 32.0736C45.546 32.8519 48.2437 34.3296 50.8888 35.308C54.1951 36.531 60.3046 38.219 69.5408 38.7581C78.7769 39.2972 103.342 37.9546 109.073 38.6143C140.914 42.28 141.022 43.1456 149 49.3599C141.849 43.7894 132.001 43.1425 122.262 42.28C116.876 42.0107 93.3319 43.0707 86.6474 42.9988C79.9629 42.9269 73.6239 41.9543 64.3657 40.4112Z" fill="#F3F4F6"/>
<path d="M25.6959 37.6799C36.0173 38.7725 46.8036 41.3816 50.1698 42.6394C45.2822 42.0884 34.4863 41.4391 28.9662 41.6691C23.4461 41.8991 14.7347 42.9149 11.2487 43.5019C13.4768 42.879 17.8254 41.13 17.8254 40.4831C17.8254 39.6925 13.6565 38.219 10.2783 37.6799C7.69079 37.267 1.77295 36.1226 0 36.0268C4.75583 36.1226 15.3744 36.5874 25.6959 37.6799Z" fill="#F3F4F6"/>
</svg>
