<svg width="149" height="52" viewBox="0 0 149 52" fill="none" xmlns="http://www.w3.org/2000/svg">
<path d="M68.2822 14C82.0825 14 99.2969 21.8705 107.131 25.7877C99.5365 22.6761 83.3762 16.1922 69.0369 16.1922C57.3892 16.1922 46.6593 17.8663 42.4426 19.1032C43.4488 20.3251 44.1892 22.2586 49.8818 25.1049C55.2684 27.7982 64.8661 30.8004 68.4806 31.6331C68.6702 31.674 68.8557 31.7142 69.0369 31.7535C68.872 31.7207 68.686 31.6804 68.4806 31.6331C58.6218 29.5024 37.7319 25.1975 28.5345 24.0627C23 23.3799 9.18771 23.1283 5.49805 23.3799C9.59501 22.9486 20.4052 21.3242 29.7204 19.4267C41.3644 17.0548 48.8755 14 68.2822 14Z" fill="#F3F4F6"/>
<path d="M64.3657 28.4112C55.9561 27.0096 46.2168 21.9663 44.5996 20.0736C45.546 20.8519 48.2437 22.3296 50.8888 23.308C54.1951 24.531 60.3046 26.219 69.5408 26.7581C78.7769 27.2972 103.342 25.9546 109.073 26.6143C140.914 30.28 141.022 31.1456 149 37.3599C141.849 31.7894 132.001 31.1425 122.262 30.28C116.876 30.0107 93.3319 31.0707 86.6474 30.9988C79.9629 30.9269 73.6239 29.9543 64.3657 28.4112Z" fill="#F3F4F6"/>
<path d="M25.6959 25.6799C36.0173 26.7725 46.8036 29.3816 50.1698 30.6394C45.2822 30.0884 34.4863 29.4391 28.9662 29.6691C23.4461 29.8991 14.7347 30.9149 11.2487 31.5019C13.4768 30.879 17.8254 29.13 17.8254 28.4831C17.8254 27.6925 13.6565 26.219 10.2783 25.6799C7.69079 25.267 1.77295 24.1226 0 24.0268C4.75583 24.1226 15.3744 24.5874 25.6959 25.6799Z" fill="#F3F4F6"/>
</svg>
